<svg xmlns="http://www.w3.org/2000/svg" viewBox="0 0 64 64">
  <defs>
    <linearGradient id="bg" x1="10" y1="6" x2="54" y2="58" gradientUnits="userSpaceOnUse">
      <stop stop-color="#242832"/>
      <stop offset="1" stop-color="#090B10"/>
    </linearGradient>
    <linearGradient id="gold" x1="15" y1="18" x2="50" y2="51" gradientUnits="userSpaceOnUse">
      <stop stop-color="#FFE083"/>
      <stop offset=".42" stop-color="#F3C74D"/>
      <stop offset="1" stop-color="#9F6B13"/>
    </linearGradient>
    <linearGradient id="box" x1="18" y1="21" x2="48" y2="47" gradientUnits="userSpaceOnUse">
      <stop stop-color="#3B3F48"/>
      <stop offset="1" stop-color="#111827"/>
    </linearGradient>
  </defs>
  <rect x="3" y="3" width="58" height="58" rx="16" fill="url(#bg)"/>
  <rect x="5.5" y="5.5" width="53" height="53" rx="13.5" fill="none" stroke="url(#gold)" stroke-width="3"/>
  <path d="M16 29c0-5 4-9 9-9h14c5 0 9 4 9 9v15c0 4.4-3.6 8-8 8H24c-4.4 0-8-3.6-8-8V29Z" fill="url(#box)"/>
  <path d="M16 32h32" stroke="url(#gold)" stroke-width="5" stroke-linecap="round"/>
  <path d="M26 19.5c0-3.6 2.9-6.5 6.5-6.5S39 15.9 39 19.5" fill="none" stroke="#F3C74D" stroke-width="4" stroke-linecap="round"/>
  <path d="M27 31h10c2.8 0 5 2.2 5 5v9c0 2.8-2.2 5-5 5H27c-2.8 0-5-2.2-5-5v-9c0-2.8 2.2-5 5-5Z" fill="url(#gold)"/>
  <circle cx="32" cy="39" r="3.5" fill="#111827"/>
  <path d="M32 40.5v6" stroke="#111827" stroke-width="3" stroke-linecap="round"/>
</svg>
